<?xml version="1.0" standalone="no"?>
<!DOCTYPE svg PUBLIC "-//W3C//DTD SVG 20010904//EN"
 "http://www.w3.org/TR/2001/REC-SVG-20010904/DTD/svg10.dtd">
<svg version="1.0" xmlns="http://www.w3.org/2000/svg"
 width="895.000000pt" height="943.000000pt" viewBox="0 0 895.000000 943.000000"
 preserveAspectRatio="xMidYMid meet">
<metadata>
Created by potrace 1.16, written by Peter Selinger 2001-2019
</metadata>
<g transform="translate(0.000000,943.000000) scale(0.100000,-0.100000)"
fill="#000000" stroke="none">
<path d="M6140 9418 c0 -2 -69 -176 -153 -388 l-152 -385 -106 -3 -106 -3
-118 -432 c-65 -238 -121 -442 -126 -454 -8 -21 -15 -23 -89 -23 -74 0 -81 -2
-90 -22 -6 -13 -86 -243 -178 -513 l-168 -490 -97 -3 c-80 -2 -98 0 -103 13
-4 8 -74 477 -158 1043 l-151 1027 -208 3 c-161 2 -208 0 -211 -10 -3 -7 -7
-422 -9 -921 -3 -500 -7 -910 -9 -913 -3 -2 -33 -5 -67 -6 l-62 -3 -152 332
c-117 256 -156 333 -170 333 -27 0 -580 -189 -593 -203 -9 -10 -35 -568 -34
-729 0 -24 -9 -32 -60 -58 -33 -16 -66 -30 -74 -30 -8 0 -159 115 -336 255
-184 146 -326 252 -333 249 -52 -29 -497 -317 -506 -328 -9 -10 17 -92 110
-351 68 -190 118 -344 114 -353 -13 -35 -111 -182 -121 -182 -6 0 -167 65
-359 145 -192 80 -354 144 -361 143 -19 -4 -384 -477 -384 -497 0 -9 122 -144
271 -300 148 -157 268 -289 266 -295 -2 -6 -14 -41 -27 -78 -23 -67 -24 -68
-59 -68 -76 -1 -782 -58 -788 -63 -6 -6 -123 -678 -123 -708 0 -12 77 -45 297
-129 164 -62 315 -120 336 -128 l37 -14 0 -77 0 -76 -356 -180 c-195 -99 -359
-185 -364 -190 -8 -9 132 -621 145 -633 3 -3 193 -14 422 -24 230 -11 420 -22
422 -24 2 -2 6 -48 8 -101 l4 -98 -262 -215 c-144 -118 -266 -222 -272 -231
-8 -13 31 -77 184 -302 129 -192 199 -287 210 -287 10 0 180 58 377 130 198
71 364 130 371 130 6 0 26 -29 43 -65 l32 -64 -107 -334 c-59 -184 -107 -341
-107 -349 0 -20 467 -381 484 -375 7 3 141 112 297 244 157 131 292 244 301
251 15 12 29 7 102 -33 47 -26 88 -50 90 -54 3 -4 0 -171 -6 -369 -6 -199 -9
-364 -6 -367 7 -7 612 -115 644 -115 28 0 35 13 235 452 109 240 86 221 259
216 l105 -3 125 -362 c69 -200 130 -364 135 -366 8 -4 610 57 655 65 13 3 16
64 20 453 l5 450 120 17 c66 10 125 16 131 14 5 -2 106 -128 223 -280 118
-152 219 -276 225 -276 13 0 575 325 593 343 10 10 -9 95 -92 407 -58 217
-105 398 -105 401 0 3 36 36 80 73 l81 67 291 -156 c160 -86 299 -155 309
-153 22 4 460 558 456 578 -1 8 -94 93 -207 188 -113 95 -229 194 -259 220
l-53 47 53 133 52 132 35 0 c18 0 189 -7 379 -16 226 -10 349 -12 355 -6 12
12 149 573 142 583 -2 4 -127 71 -278 149 -150 77 -281 146 -290 153 -14 11
-16 21 -9 62 l8 50 195 -3 195 -3 368 94 c203 52 371 97 374 101 6 6 22 941
22 1316 l0 245 -357 281 -358 280 -190 -11 c-104 -7 -190 -11 -192 -9 -2 1
105 97 238 213 l241 211 82 -60 c44 -33 86 -60 92 -60 18 0 1060 1127 1063
1150 3 15 -2 20 -17 20 -12 0 -171 -96 -353 -213 -183 -118 -338 -217 -345
-221 -7 -4 -44 16 -87 49 -41 30 -82 55 -91 55 -9 0 -176 -129 -372 -287 -196
-159 -361 -287 -368 -287 -7 1 -38 20 -69 44 -35 26 -62 40 -72 36 -8 -3 -209
-144 -446 -312 -474 -336 -437 -317 -502 -258 -25 24 -26 29 -26 128 0 57 -3
144 -6 194 l-7 91 94 -25 c56 -16 99 -23 106 -17 7 4 104 193 214 418 111 226
205 414 209 418 4 5 49 -4 99 -18 51 -15 98 -24 106 -22 16 7 577 1412 573
1436 -9 48 -42 12 -279 -301 -134 -177 -247 -326 -250 -331 -4 -5 -49 3 -103
17 -53 15 -101 24 -106 21 -5 -3 -116 -184 -246 -402 -265 -445 -224 -400
-346 -372 -55 13 -57 12 -77 -12 l-20 -24 -1 80 c0 44 -4 85 -8 92 -4 7 -67
18 -149 27 -174 20 -223 20 -223 4 0 -7 -7 -182 -15 -388 -8 -206 -15 -389
-15 -405 0 -22 -22 -61 -81 -140 -44 -61 -85 -110 -92 -109 -7 1 -56 14 -110
29 -58 17 -102 24 -107 19 -4 -5 -115 -245 -245 -534 -130 -289 -241 -529
-246 -534 -5 -5 -11 -8 -13 -5 -2 2 -14 71 -26 152 l-22 148 26 107 c15 59 41
160 58 225 l31 117 61 1 c33 1 88 4 120 8 l59 6 67 275 c37 151 84 330 105
397 l38 121 123 4 c68 2 128 8 133 13 8 8 181 891 181 922 0 1 44 3 98 3 53 0
103 4 111 9 9 6 36 208 96 742 45 404 80 740 77 747 -3 10 -41 19 -42 10z
m-170 -884 c-45 -236 -84 -439 -87 -451 -5 -22 -10 -23 -108 -23 -57 0 -106
-4 -110 -9 -5 -9 -175 -903 -175 -923 0 -4 -58 -8 -129 -8 l-130 0 -42 -132
c-23 -73 -71 -254 -108 -403 l-66 -270 -120 -5 -119 -5 -15 -57 c-8 -32 -18
-58 -21 -58 -3 0 -17 80 -29 178 -13 97 -25 190 -28 205 l-6 28 117 -2 c64 -1
120 2 125 7 5 5 86 234 180 508 94 275 173 501 175 504 3 2 47 9 98 15 l93 12
77 290 c42 160 96 361 119 448 l42 157 61 0 c34 0 77 3 98 6 l36 6 74 214 c40
118 74 210 76 205 2 -5 -34 -201 -78 -437z m-1675 194 c2 -7 80 -858 173
-1892 120 -1326 173 -1881 182 -1886 7 -5 134 52 317 141 168 82 307 149 309
149 2 0 4 -67 4 -149 0 -82 3 -156 6 -165 3 -9 15 -16 27 -16 11 0 135 59 274
130 140 72 259 130 264 130 5 0 9 -50 9 -114 0 -87 3 -116 15 -126 11 -9 67
12 293 113 l279 124 6 -270 c4 -149 7 -461 7 -694 l0 -423 -107 0 c-149 0
-2119 48 -2271 56 l-124 6 7 2437 c4 1340 8 2442 10 2449 3 9 44 12 160 12
116 0 157 -3 160 -12z m3009 -505 c-47 -112 -376 -753 -387 -753 -6 0 -50 12
-96 25 -47 14 -89 25 -93 25 -5 0 -103 -191 -218 -425 -119 -243 -214 -425
-222 -425 -29 0 -101 27 -108 41 -4 8 -10 99 -13 204 l-5 189 36 53 c21 29 44
53 52 53 8 0 37 -7 64 -15 93 -28 70 -55 331 376 269 442 226 399 356 360 37
-10 71 -16 76 -12 5 3 60 81 122 174 62 92 115 167 117 167 1 0 -4 -17 -12
-37z m-1315 -803 c52 -6 97 -13 101 -15 4 -2 10 -140 13 -307 4 -167 11 -384
17 -483 5 -99 14 -333 20 -520 5 -187 12 -407 16 -490 l6 -150 -64 104 c-35
58 -68 106 -74 108 -5 2 -66 -33 -134 -77 -69 -44 -127 -80 -130 -80 -5 0 1
237 19 725 16 440 41 1156 41 1183 0 20 4 22 38 17 20 -3 79 -10 131 -15z
m2551 -293 c-14 -13 -161 -153 -327 -311 l-302 -287 -85 61 c-59 43 -90 59
-100 53 -8 -4 -160 -134 -337 -288 -178 -154 -333 -288 -346 -298 -21 -17 -24
-17 -112 33 -50 27 -94 50 -97 50 -3 0 -140 -110 -305 -245 -165 -135 -303
-245 -308 -245 -7 0 -23 309 -17 317 1 1 19 -9 39 -22 20 -14 43 -25 52 -25 9
0 206 133 438 296 231 163 426 298 433 301 7 3 40 -18 72 -46 32 -28 64 -51
70 -51 6 0 174 135 373 300 200 165 366 300 369 300 4 0 40 -25 80 -55 40 -30
78 -55 84 -55 6 1 83 54 171 120 151 112 210 149 155 97z m-2816 -819 l-7
-153 -39 -70 c-22 -38 -41 -71 -42 -72 -1 -1 -53 11 -116 27 -96 26 -116 28
-128 17 -7 -8 -78 -126 -156 -263 -131 -227 -147 -252 -190 -278 -25 -16 -48
-27 -50 -25 -3 3 389 857 397 865 2 2 45 -10 97 -26 52 -17 101 -30 110 -30
10 0 40 34 71 80 30 43 55 79 57 80 2 0 0 -69 -4 -152z m1836 -545 c0 -109 -7
-565 -15 -1013 -8 -448 -15 -854 -15 -902 l0 -88 -247 0 -246 0 6 1082 c4 595
8 1083 10 1084 3 3 388 29 475 33 l32 1 0 -197z m-4268 125 c63 -27 131 -102
158 -176 21 -53 50 -262 50 -356 l0 -39 -29 40 c-78 108 -176 156 -316 155
-180 -1 -388 -99 -586 -278 -423 -383 -593 -827 -399 -1048 39 -44 33 -45 -90
-16 -126 31 -217 78 -282 148 -65 71 -88 132 -88 239 0 104 21 178 90 318 95
193 255 397 445 568 411 370 819 543 1047 445z m3626 -63 c115 -80 124 -72
-250 -202 -177 -62 -324 -111 -326 -109 -1 2 100 91 225 199 l228 195 26 -17
c14 -9 58 -38 97 -66z m-1310 -16 c53 -13 99 -24 101 -26 2 -1 -38 -48 -89
-103 -51 -55 -94 -99 -96 -97 -2 2 -10 34 -18 71 -18 85 -25 92 -66 71 -17 -9
-33 -15 -35 -13 -2 2 13 32 32 66 28 50 40 63 54 59 11 -3 63 -15 117 -28z
m92 -243 c0 -54 0 -55 -60 -108 -33 -29 -66 -53 -73 -53 -7 0 -13 15 -15 33
-3 29 5 43 65 107 37 40 71 74 76 74 4 1 7 -23 7 -53z m-2437 -123 c131 -36
247 -207 259 -381 l3 -44 -60 -22 c-282 -107 -513 -292 -682 -546 -49 -72
-135 -237 -163 -310 -23 -60 -21 -59 -128 -40 -118 21 -201 58 -258 115 -150
150 -66 469 215 817 152 189 425 372 615 413 83 18 129 18 199 -2z m637 -1513
l5 -145 55 -7 c30 -3 83 -6 118 -7 58 -1 62 -3 62 -24 0 -45 -32 -116 -72
-162 -143 -163 -395 -131 -490 62 -28 57 -33 78 -32 133 2 167 140 303 304
297 l45 -2 5 -145z m-1292 -542 c60 -155 168 -337 279 -470 139 -167 350 -315
562 -395 36 -13 68 -26 71 -28 11 -7 -9 -158 -31 -230 -26 -87 -50 -134 -92
-181 -103 -119 -328 -103 -570 38 -340 198 -624 540 -693 835 -52 222 72 386
342 452 112 28 113 28 132 -21z m2686 -18 c155 -39 285 -130 336 -235 33 -66
39 -183 15 -275 -38 -149 -164 -359 -290 -484 -159 -160 -431 -330 -590 -371
-93 -23 -209 -20 -271 9 -124 57 -207 186 -248 383 -13 58 -12 65 3 70 136 49
291 130 395 206 197 145 370 368 479 620 48 112 44 110 171 77z m-3118 -52
c-28 -29 -63 -75 -76 -103 -22 -44 -25 -63 -25 -165 0 -100 4 -126 28 -196
101 -295 419 -639 745 -807 159 -81 228 -102 342 -102 116 0 163 19 245 96
l55 52 -6 -74 c-15 -179 -50 -275 -126 -346 -64 -58 -128 -77 -242 -71 -113 7
-209 35 -351 103 -397 191 -818 602 -986 960 -112 238 -103 422 25 544 80 75
205 129 356 154 70 12 71 9 16 -45z m3514 -9 c95 -24 203 -76 257 -123 25 -22
56 -64 75 -103 30 -61 33 -74 32 -157 -1 -74 -7 -108 -33 -186 -67 -199 -212
-412 -426 -625 -193 -193 -369 -324 -575 -429 -327 -167 -570 -161 -675 18
-41 70 -55 125 -70 271 -20 189 -20 187 13 134 71 -111 178 -169 328 -177 229
-11 500 125 754 378 161 160 261 312 316 477 69 213 27 399 -118 514 l-52 41
49 -7 c28 -4 84 -16 125 -26z"/>
</g>
</svg>
